<?xml version="1.0" encoding="utf-8"?>
<!-- Generator: Adobe Illustrator 19.2.1, SVG Export Plug-In . SVG Version: 6.00 Build 0)  -->
<svg version="1.1" id="Layer_1" xmlns="http://www.w3.org/2000/svg" xmlns:xlink="http://www.w3.org/1999/xlink" x="0px" y="0px"
     viewBox="0 0 460 320" xml:space="preserve">
<style type="text/css">
    .st0{fill:#2D2D2D ;}
    .st1{fill:#FF0026 ;}
    .st2{fill:#FFFFFF ;}
    .st3{fill:none;}
</style>
<path class="st0" d="M373.9,241.6l-23.3-23.3H308c-4.2,0-7.8,3.5-7.8,7.8v81.5c0,4.3,3.6,7.8,7.8,7.8h58.2c4.2,0,7.8-3.5,7.8-7.8
    V241.6z M350.6,224.2v-0.3l17.8,17.8h-13.9c-2.1,0-3.9-1.7-3.9-3.9V224.2z M370,307.6c0,2.1-1.8,3.9-3.9,3.9H308
    c-2.1,0-3.9-1.7-3.9-3.9v-81.5c0-2.1,1.8-3.9,3.9-3.9h38.8v15.5c0,4.3,3.6,7.8,7.8,7.8H370V307.6z"/>
<path class="st1" d="M377.8,296v-19.4c0-3.9-3.3-7.8-7.8-7.8c-2.1,0-50.4,0-50.4,0c-4.2,0-7.8,3.5-7.8,7.8V296
    c0,4.3,3.6,7.8,7.8,7.8c0,0,46.6,0,50.4,0C374.4,303.7,377.8,300.3,377.8,296z"/>
<path class="st2" d="M373.9,296c0,2.1-1.8,3.9-3.9,3.9h-50.4c-2.1,0-3.9-1.7-3.9-3.9v-19.4c0-2.1,1.8-3.9,3.9-3.9H370
    c2.1,0,3.9,1.7,3.9,3.9V296z"/>
<path class="st1" d="M331.2,280.4v7.8h-3.9v-7.8H331.2 M331.2,276.6h-7.8V296h3.9v-3.9h3.9c2.1,0,3.9-1.7,3.9-3.9v-7.8
    C335.1,278.3,333.4,276.6,331.2,276.6L331.2,276.6z"/>
<path class="st1" d="M346.8,276.6H339V296h7.8c2.1,0,3.9-1.7,3.9-3.9v-11.6C350.6,278.3,348.9,276.6,346.8,276.6z M346.8,292.1h-3.9
    v-11.6h3.9V292.1z"/>
<polygon class="st1" points="366.2,280.4 366.2,276.6 358.4,276.6 354.5,276.6 354.5,296 358.4,296 358.4,288.2 362.3,288.2 
    362.3,284.3 358.4,284.3 358.4,280.4 "/>
<rect id="​_x3C_Slice_x3E_​" class="st3" />
</svg>